<?xml version="1.0" encoding="utf-8"?>
<!-- Generator: Adobe Illustrator 16.0.4, SVG Export Plug-In . SVG Version: 6.00 Build 0)  -->
<!DOCTYPE svg PUBLIC "-//W3C//DTD SVG 1.1//EN" "http://www.w3.org/Graphics/SVG/1.1/DTD/svg11.dtd">
<svg version="1.1" id="Layer_1" xmlns="http://www.w3.org/2000/svg" xmlns:xlink="http://www.w3.org/1999/xlink" x="0px" y="0px"
	 width="207px" height="42px" viewBox="0 0 207 42" enable-background="new 0 0 207 42" xml:space="preserve">
<g>
	<path fill="#FFFFFF" d="M18.096,40V8.472l-6.272,8.176L5.552,8.472V40H1.8V2.648h3.752l6.272,7.952l6.272-7.952h3.752V40H18.096z"
		/>
	<path fill="#FFFFFF" d="M27.197,40v-6.782h-1.683v-3.213h1.683V12.82h10.199v3.212h-6.782v13.973h8.465v3.213h-8.465v3.569h6.782
		V40H27.197z"/>
	<path fill="#FFFFFF" d="M44.791,40V16.032h-5.099V12.82h13.615v3.212h-5.099V40H44.791z"/>
	<path fill="#FFFFFF" d="M59.53,40h-3.417V12.82H58c9.026,0,11.678,5.864,11.678,10.199c0,4.233-2.601,7.904-6.375,9.435L69.933,40
		h-4.487l-5.916-6.986V40z M59.53,30.005c3.723-0.103,6.731-3.212,6.731-6.986c0-3.773-2.958-6.884-6.731-7.037V30.005z"/>
	<path fill="#FFFFFF" d="M100.531,26.385c0,7.751-6.272,14.023-14.023,14.023s-14.023-6.272-14.023-14.023
		c0-7.751,6.272-14.024,14.023-14.024S100.531,18.633,100.531,26.385z M75.9,26.385c0,5.863,4.743,10.606,10.607,10.606
		s10.607-4.743,10.607-10.606c0-5.865-4.743-10.607-10.607-10.607S75.9,20.52,75.9,26.385z"/>
	<path fill="#FFFFFF" d="M119.312,28.801v11.424c-1.344-0.281-2.576-0.672-3.697-1.177c-6.887-2.968-11.647-9.8-11.647-17.696
		c0-8.008,4.815-14.84,11.647-17.752c1.121-0.448,2.354-0.84,3.697-1.176v3.808c-1.176,0.504-2.521,0.896-3.697,1.624
		c-4.76,2.688-7.895,7.728-7.895,13.496s3.248,10.919,8.008,13.608v-6.159H119.312z"/>
	<path fill="#FFFFFF" d="M127.029,40h-3.418V12.82h1.887c9.027,0,11.678,5.864,11.678,10.199c0,4.233-2.6,7.904-6.373,9.435
		L137.432,40h-4.488l-5.914-6.986V40z M127.029,30.005c3.723-0.103,6.73-3.212,6.73-6.986c0-3.773-2.957-6.884-6.73-7.037V30.005z"
		/>
	<path fill="#FFFFFF" d="M168.031,26.385c0,7.751-6.273,14.023-14.023,14.023c-7.752,0-14.023-6.272-14.023-14.023
		c0-7.751,6.271-14.024,14.023-14.024C161.758,12.361,168.031,18.633,168.031,26.385z M143.4,26.385
		c0,5.863,4.742,10.606,10.607,10.606c5.863,0,10.605-4.743,10.605-10.606c0-5.865-4.742-10.607-10.605-10.607
		C148.143,15.777,143.4,20.52,143.4,26.385z"/>
	<path fill="#FFFFFF" d="M171.754,12.82h3.418v20.602c0.102,2.244,1.428,3.824,3.568,3.824c1.99,0,3.111-1.479,3.213-3.773V12.82
		h3.418v19.276c0,3.009-0.307,4.232-1.275,5.66c-1.225,1.734-3.162,2.652-5.559,2.652c-2.652,0-4.896-1.326-6.018-3.52
		c-0.561-1.172-0.766-2.294-0.766-5.048V12.82z"/>
	<path fill="#FFFFFF" d="M203.525,23.019c0,5.661-4.588,10.199-10.146,10.199V40h-3.418V12.82h2.551
		C199.242,12.82,203.525,17.358,203.525,23.019z M193.379,30.005c3.723-0.103,6.73-3.212,6.73-6.986c0-3.773-2.957-6.884-6.73-7.037
		V30.005z"/>
</g>
<g>
</g>
<g>
</g>
<g>
</g>
<g>
</g>
<g>
</g>
<g>
</g>
<g>
</g>
<g>
</g>
<g>
</g>
<g>
</g>
<g>
</g>
<g>
</g>
<g>
</g>
<g>
</g>
<g>
</g>
</svg>
